<svg xmlns="http://www.w3.org/2000/svg" xmlns:xlink="http://www.w3.org/1999/xlink" width="600" height="400">
  <path fill="#078930" d="M0 0h600v400H0z"/>
  <path fill="#fcdd09" d="M0 125h600v150H0z"/>
  <path d="M0 175h600v50H0z"/>
  <path fill="#dc121a" d="M0 0h150v400H0z"/>
  <path id="a" d="m75 28.499992 14.1068 43.4164-36.9322-26.8328h45.6508l-36.9322 26.8328z" style="fill:#fff"/>
  <use xlink:href="#a" y="58.75" transform="translate(0 -10.041664)" width="100%" height="100%"/>
  <use xlink:href="#a" y="117" transform="translate(0 -19.583343)" width="100%" height="100%"/>
  <use xlink:href="#a" y="175.5" transform="translate(0 19.333329)" width="100%" height="100%"/>
  <use xlink:href="#a" y="233.75" transform="translate(0 9.7916717)" width="100%" height="100%"/>
  <use xlink:href="#a" y="292.25" transform="translate(0 .00000763)" width="100%" height="100%"/>
  <path style="fill:#fff" d="m75.83815 174.62499 14.1068 43.4164-36.9322-26.8328h45.6508l-36.9322 26.8328z"/>
</svg>
